<svg width="18" height="18" viewBox="0 0 18 18" fill="none" xmlns="http://www.w3.org/2000/svg">
<path d="M14.083 8.16656C14.083 4.89899 11.4345 2.24975 8.16699 2.24957C4.89931 2.24957 2.25 4.89888 2.25 8.16656C2.25018 11.4341 4.89942 14.0826 8.16699 14.0826C11.4344 14.0824 14.0828 11.434 14.083 8.16656ZM15.583 8.16656C15.5828 12.2624 12.2628 15.5824 8.16699 15.5826C4.07099 15.5826 0.750176 12.2625 0.75 8.16656C0.75 4.07045 4.07088 0.749573 8.16699 0.749573C12.263 0.749749 15.583 4.07056 15.583 8.16656Z" fill="#1A1A1A"/>
<path d="M12.3447 12.3443C12.6376 12.0514 13.1123 12.0514 13.4052 12.3443L17.0302 15.9693C17.3231 16.2622 17.3231 16.737 17.0302 17.0299C16.7373 17.3227 16.2626 17.3227 15.9697 17.0299L12.3447 13.4049C12.0518 13.112 12.0518 12.6372 12.3447 12.3443Z" fill="#1A1A1A"/>
</svg>
