<svg width="183" height="39" viewBox="0 0 183 39" fill="none" xmlns="http://www.w3.org/2000/svg">
<path d="M31.2749 7.84235C27.4022 7.84235 21.9311 8.16638 19.1352 10.9608C17.9247 12.1713 17.3202 14.1447 17.4771 16.3782C17.4975 16.6732 17.6937 16.9246 17.9756 17.0176C18.256 17.1092 18.5641 17.0234 18.7559 16.7982C20.3108 14.9687 22.2435 13.5024 24.5046 12.4402C24.6964 12.3486 24.9231 12.3413 25.1295 12.414C25.3111 12.4794 25.4535 12.6029 25.5276 12.7613C25.6816 13.0869 25.6322 13.5155 25.1207 13.7567C25.0917 13.7712 25.0655 13.7902 25.0365 13.8033C25.0263 13.8076 25.0147 13.8062 25.006 13.8105C19.4346 16.4292 16.6954 20.9979 15.4514 25.6959C14.5446 19.8135 12.6294 16.3506 10.8202 14.2247C9.51095 12.5274 8.22341 11.6279 7.47943 11.1193C7.34136 11.0248 6.92435 10.74 6.7514 10.5671C6.46803 10.2837 6.46803 9.82305 6.7514 9.53968C7.03477 9.25775 7.49687 9.25775 7.81218 9.57163C7.88923 9.63995 8.01272 9.72714 8.16966 9.83177L8.29902 9.91896C9.35108 10.6397 11.31 11.9781 13.0479 14.8597C13.2034 15.1169 13.5042 15.255 13.7963 15.1997C14.0928 15.1474 14.3252 14.9193 14.3834 14.6243C14.7627 12.6872 14.5927 9.81283 12.8649 8.08505C10.069 5.29205 4.59789 4.96802 0.726671 4.96802C0.32553 4.96795 0 5.29348 0 5.69455C0 9.5672 0.324032 15.0383 3.11846 17.8343C4.28387 18.9997 6.08147 19.5228 7.86736 19.5228C9.32486 19.5228 10.7533 19.1581 11.8476 18.5259C13.3399 21.6182 14.5316 26.2379 14.5316 33.3046C14.5316 33.7056 14.8571 34.0312 15.2582 34.0312C15.6592 34.0312 15.9848 33.7056 15.9848 33.3046C15.9848 29.3622 16.6605 24.6306 19.173 20.7362C20.18 21.72 21.9137 22.3434 23.8347 22.4015C23.9306 22.4044 24.0251 22.4059 24.1195 22.4059C26.0711 22.4059 27.796 21.7941 28.8815 20.7071C31.6773 17.9112 31.9999 12.4401 31.9999 8.56738C32.0015 8.16638 31.6774 7.84235 31.2749 7.84235Z" fill="#00B307"/>
<path d="M46.048 11.2035V17.7315H53.728V20.7075H46.048V27.5235H54.688V30.4995H42.4V8.22755H54.688V11.2035H46.048ZM57.0052 21.6675C57.0052 19.8542 57.3679 18.2649 58.0933 16.8995C58.8399 15.5129 59.8639 14.4462 61.1653 13.6995C62.4666 12.9529 63.9599 12.5795 65.6453 12.5795C67.7786 12.5795 69.5386 13.0915 70.9253 14.1155C72.3333 15.1182 73.2826 16.5582 73.7733 18.4355H69.8373C69.5173 17.5609 69.0053 16.8782 68.3013 16.3875C67.5973 15.8969 66.7119 15.6515 65.6453 15.6515C64.1519 15.6515 62.9573 16.1849 62.0613 17.2515C61.1866 18.2969 60.7493 19.7689 60.7493 21.6675C60.7493 23.5662 61.1866 25.0489 62.0613 26.1155C62.9573 27.1822 64.1519 27.7155 65.6453 27.7155C67.7573 27.7155 69.1546 26.7875 69.8373 24.9315H73.7733C73.2613 26.7235 72.3013 28.1529 70.8933 29.2195C69.4853 30.2649 67.7359 30.7875 65.6453 30.7875C63.9599 30.7875 62.4666 30.4142 61.1653 29.6675C59.8639 28.8995 58.8399 27.8329 58.0933 26.4675C57.3679 25.0809 57.0052 23.4809 57.0052 21.6675ZM84.0968 30.7875C82.4328 30.7875 80.9288 30.4142 79.5848 29.6675C78.2408 28.8995 77.1848 27.8329 76.4168 26.4675C75.6488 25.0809 75.2648 23.4809 75.2648 21.6675C75.2648 19.8755 75.6594 18.2862 76.4488 16.8995C77.2381 15.5129 78.3154 14.4462 79.6808 13.6995C81.0461 12.9529 82.5714 12.5795 84.2568 12.5795C85.9421 12.5795 87.4674 12.9529 88.8328 13.6995C90.1981 14.4462 91.2754 15.5129 92.0648 16.8995C92.8541 18.2862 93.2488 19.8755 93.2488 21.6675C93.2488 23.4595 92.8434 25.0489 92.0328 26.4355C91.2221 27.8222 90.1128 28.8995 88.7048 29.6675C87.3181 30.4142 85.7821 30.7875 84.0968 30.7875ZM84.0968 27.6195C85.0354 27.6195 85.9101 27.3955 86.7208 26.9475C87.5528 26.4995 88.2248 25.8275 88.7368 24.9315C89.2488 24.0355 89.5048 22.9475 89.5048 21.6675C89.5048 20.3875 89.2594 19.3102 88.7688 18.4355C88.2781 17.5395 87.6274 16.8675 86.8168 16.4195C86.0061 15.9715 85.1314 15.7475 84.1928 15.7475C83.2541 15.7475 82.3794 15.9715 81.5688 16.4195C80.7794 16.8675 80.1501 17.5395 79.6808 18.4355C79.2114 19.3102 78.9768 20.3875 78.9768 21.6675C78.9768 23.5662 79.4568 25.0382 80.4168 26.0835C81.3981 27.1075 82.6248 27.6195 84.0968 27.6195ZM99.543 15.4915C100.162 14.6382 101.004 13.9449 102.071 13.4115C103.159 12.8569 104.364 12.5795 105.687 12.5795C107.244 12.5795 108.652 12.9529 109.911 13.6995C111.17 14.4462 112.162 15.5129 112.887 16.8995C113.612 18.2649 113.975 19.8329 113.975 21.6035C113.975 23.3742 113.612 24.9635 112.887 26.3715C112.162 27.7582 111.159 28.8462 109.879 29.6355C108.62 30.4035 107.223 30.7875 105.687 30.7875C104.322 30.7875 103.106 30.5209 102.039 29.9875C100.994 29.4542 100.162 28.7715 99.543 27.9395V30.4995H95.895V6.81955H99.543V15.4915ZM110.263 21.6035C110.263 20.3875 110.007 19.3422 109.495 18.4675C109.004 17.5715 108.343 16.8995 107.511 16.4515C106.7 15.9822 105.826 15.7475 104.887 15.7475C103.97 15.7475 103.095 15.9822 102.263 16.4515C101.452 16.9209 100.791 17.6035 100.279 18.4995C99.7883 19.3955 99.543 20.4515 99.543 21.6675C99.543 22.8835 99.7883 23.9502 100.279 24.8675C100.791 25.7635 101.452 26.4462 102.263 26.9155C103.095 27.3849 103.97 27.6195 104.887 27.6195C105.826 27.6195 106.7 27.3849 107.511 26.9155C108.343 26.4249 109.004 25.7209 109.495 24.8035C110.007 23.8862 110.263 22.8195 110.263 21.6035ZM115.407 21.6035C115.407 19.8329 115.769 18.2649 116.495 16.8995C117.241 15.5342 118.244 14.4782 119.503 13.7315C120.783 12.9635 122.191 12.5795 123.727 12.5795C125.113 12.5795 126.319 12.8569 127.343 13.4115C128.388 13.9449 129.22 14.6169 129.839 15.4275V12.8675H133.519V30.4995H129.839V27.8755C129.22 28.7075 128.377 29.4009 127.311 29.9555C126.244 30.5102 125.028 30.7875 123.663 30.7875C122.148 30.7875 120.761 30.4035 119.503 29.6355C118.244 28.8462 117.241 27.7582 116.495 26.3715C115.769 24.9635 115.407 23.3742 115.407 21.6035ZM129.839 21.6675C129.839 20.4515 129.583 19.3955 129.071 18.4995C128.58 17.6035 127.929 16.9209 127.119 16.4515C126.308 15.9822 125.433 15.7475 124.495 15.7475C123.556 15.7475 122.681 15.9822 121.871 16.4515C121.06 16.8995 120.399 17.5715 119.887 18.4675C119.396 19.3422 119.151 20.3875 119.151 21.6035C119.151 22.8195 119.396 23.8862 119.887 24.8035C120.399 25.7209 121.06 26.4249 121.871 26.9155C122.703 27.3849 123.577 27.6195 124.495 27.6195C125.433 27.6195 126.308 27.3849 127.119 26.9155C127.929 26.4462 128.58 25.7635 129.071 24.8675C129.583 23.9502 129.839 22.8835 129.839 21.6675ZM140.582 27.5235H148.582V30.4995H136.358V27.5235L144.39 15.8435H136.358V12.8675H148.582V15.8435L140.582 27.5235ZM150.236 21.6035C150.236 19.8329 150.599 18.2649 151.324 16.8995C152.071 15.5342 153.074 14.4782 154.332 13.7315C155.612 12.9635 157.02 12.5795 158.556 12.5795C159.943 12.5795 161.148 12.8569 162.172 13.4115C163.218 13.9449 164.05 14.6169 164.668 15.4275V12.8675H168.348V30.4995H164.668V27.8755C164.05 28.7075 163.207 29.4009 162.14 29.9555C161.074 30.5102 159.858 30.7875 158.492 30.7875C156.978 30.7875 155.591 30.4035 154.332 29.6355C153.074 28.8462 152.071 27.7582 151.324 26.3715C150.599 24.9635 150.236 23.3742 150.236 21.6035ZM164.668 21.6675C164.668 20.4515 164.412 19.3955 163.9 18.4995C163.41 17.6035 162.759 16.9209 161.948 16.4515C161.138 15.9822 160.263 15.7475 159.324 15.7475C158.386 15.7475 157.511 15.9822 156.7 16.4515C155.89 16.8995 155.228 17.5715 154.716 18.4675C154.226 19.3422 153.98 20.3875 153.98 21.6035C153.98 22.8195 154.226 23.8862 154.716 24.8035C155.228 25.7209 155.89 26.4249 156.7 26.9155C157.532 27.3849 158.407 27.6195 159.324 27.6195C160.263 27.6195 161.138 27.3849 161.948 26.9155C162.759 26.4462 163.41 25.7635 163.9 24.8675C164.412 23.9502 164.668 22.8835 164.668 21.6675ZM175.828 15.4275C176.361 14.5315 177.065 13.8382 177.94 13.3475C178.836 12.8355 179.892 12.5795 181.108 12.5795V16.3555H180.18C178.751 16.3555 177.663 16.7182 176.916 17.4435C176.191 18.1689 175.828 19.4275 175.828 21.2195V30.4995H172.18V12.8675H175.828V15.4275Z" fill="#002603"/>
</svg>
